# xmcd
#
# Track frame offsets: 
#        150
#        17763
#        25444
#        58862
#        70459
#        92333
#        103781
#        126058
#        141060
#        154347
#        165459
#        180668
#
# Disc length: 2663 seconds
#
# Revision: 0
# Processed by: cddbd v1.5.2PL0 Copyright (c) Steve Scherf et al.
# Submitted via: ExactAudioCopyFreeDBPlugin 1.0
#
DISCID=a00a650c
DTITLE=Molotow Bras Orkestar - Molotow Bras Orkestar
DYEAR=1900
DGENRE=Brass
TTITLE0=01_Adzanak Badzank
TTITLE1=02_Varshaver Freylekhs
TTITLE2=03_Ajde Jano
TTITLE3=04_Jocul Boldenilor
TTITLE4=05_Lioba-Vladin
TTITLE5=06_Dusty_Road
TTITLE6=07_Baym_Rebin's_Sude-Galizianischer_Tanz
TTITLE7=08_Southern_Comfort
TTITLE8=09_Bugarsko_Oro
TTITLE9=10_Czarny_Forever
TTITLE10=11_Gas_Gas
TTITLE11=12_Guggisbärg_Lied
EXTD=
EXTT0=
EXTT1=
EXTT2=
EXTT3=
EXTT4=
EXTT5=
EXTT6=
EXTT7=
EXTT8=
EXTT9=
EXTT10=
EXTT11=
PLAYORDER=
